<?xml version="1.0" standalone="no"?><!DOCTYPE svg PUBLIC "-//W3C//DTD SVG 1.1//EN" "http://www.w3.org/Graphics/SVG/1.1/DTD/svg11.dtd"><svg t="1727661430407" class="icon" viewBox="0 0 1108 1024" version="1.1" xmlns="http://www.w3.org/2000/svg" p-id="22141" xmlns:xlink="http://www.w3.org/1999/xlink" width="17.3125" height="16"><path d="M929.715597 603.116217c-8.93444 0-17.536951-1.466023-25.613907-4.0938a369.90796 369.90796 0 0 0-1.217075-156.726127 82.70581 82.70581 0 1 1 26.830982 160.819927m-746.537497-3.125671a82.70581 82.70581 0 1 1 1.272398-158.800688 369.161119 369.161119 0 0 0-1.272398 158.800688m695.392666-229.750656l0.359591 0.138304-0.248947 0.082982c0-0.082982-0.055322-0.138304-0.082983-0.221286M543.515422 805.952908c-167.237234 0-295.417409-180.459099-295.41741-321.280263a170.445887 170.445887 0 0 1 170.418227-170.445887c37.093141 0 71.36488 11.894147 99.302294 32.086535a43.56577 43.56577 0 0 0 51.393778 0 169.062847 169.062847 0 0 1 99.274633-32.086535 170.445887 170.445887 0 0 1 170.445887 170.445887c0 140.821164-124.88854 321.280263-295.417409 321.280263m391.262102-443.706991c-25.862854-32.086535-6.085377-56.096115 5.338536-65.998683 2.129882-1.853274 0.829824-5.366196-1.991578-5.366197-50.45331-0.442573-66.966812 32.446126-72.443651 54.159859a368.912171 368.912171 0 0 0-227.48247-177.748341c-8.768476-54.381145-45.363722-167.624485-198.300319-166.352088-7.468418 0.055322-10.98134 9.459996-5.310875 14.38362 27.024608 23.34572 71.641488 76.094878 34.105774 147.238471-104.945098 21.63075-193.349035 88.044346-244.936438 178.218573-6.52795-21.492446-24.064901-50.315006-71.309558-49.900094-2.793741 0-4.093799 3.512922-1.991578 5.366197 11.451574 9.902569 31.201389 33.884488 5.338535 65.998683a158.330454 158.330454 0 0 0 5.089589 316.633248c15.877303 0 31.173729-2.351169 45.64033-6.693915 57.202547 129.286608 186.516816 219.543818 336.991601 219.543818 150.862037 0 280.480574-90.727444 337.434174-220.567268a158.441097 158.441097 0 0 0 207.179438-150.751394 158.330454 158.330454 0 0 0-153.35151-158.164489" fill="#2c2c2c" p-id="22142"></path><path d="M590.179202 601.456568l-40.661385 10.400463-40.661385-10.400463a7.938651 7.938651 0 1 0-3.927835 15.351748l36.678229 9.377013v22.405253a7.910991 7.910991 0 1 0 15.849642 0v-22.405253l36.650568-9.377013a7.938651 7.938651 0 0 0-3.927834-15.351748M445.347221 907.744675v104.447203c0 9.542978 10.732393 15.130461 18.53274 9.681283l89.344404-61.904884-89.344404-61.932545a11.811164 11.811164 0 0 0-18.53274 9.708943z" fill="#2c2c2c" p-id="22143"></path><path d="M626.719127 898.035732l-89.344404 61.960205 89.344404 61.904884a11.811164 11.811164 0 0 0 18.560401-9.708943v-104.447203a11.811164 11.811164 0 0 0-18.532741-9.681283M433.425413 529.981045a25.06069 25.06069 0 1 0 0 50.121381 25.06069 25.06069 0 0 0 0-50.121381M657.201335 529.981045a25.06069 25.06069 0 1 0 0 50.121381 25.06069 25.06069 0 0 0 0-50.121381" fill="#2c2c2c" p-id="22144"></path></svg>